<svg height="20" viewBox="0 0 20 20" width="20" xmlns="http://www.w3.org/2000/svg"><g fill="#0199ef"><path d="m378.888 536.337c-1.694-1.633-4.168-2.461-7.352-2.461-3.248 0-5.753.859-7.446 2.553s-2.552 4.2-2.552 7.45.859 5.753 2.552 7.446 4.2 2.552 7.446 2.552 5.756-.859 7.45-2.552 2.552-4.2 2.552-7.446c.001-3.309-.891-5.846-2.65-7.542zm-.588 14.463c-1.53 1.474-3.8 2.221-6.761 2.221s-5.229-.747-6.759-2.221c-1.584-1.527-2.388-3.857-2.388-6.925s.8-5.4 2.388-6.929c1.529-1.475 3.8-2.223 6.759-2.223s5.231.748 6.761 2.224c1.586 1.528 2.391 3.859 2.391 6.928s-.807 5.402-2.391 6.925z" transform="matrix(-1 0 0 -1 381.539 553.876)"/><path d="m378.4 546.5-3.284 3.343-3.257-3.341a.432.432 0 0 0 -.619.6l3.334 3.42.022.021a.772.772 0 0 0 1.076-.035l3.345-3.4a.432.432 0 1 0 -.616-.606z" transform="matrix(-1 0 0 -1 385.132 558.563)"/></g></svg>