<svg height="24" viewBox="0 0 24 24" width="24" xmlns="http://www.w3.org/2000/svg"><g fill="#fff"><path d="m357.354 346.337a2.1 2.1 0 0 0 1.477.6h.029a2.042 2.042 0 0 0 .276-.03 5.45 5.45 0 1 0 .819-7.726l-.947-.917a3.609 3.609 0 0 0 -2.976-.988 4.652 4.652 0 0 1 -.615-.009 1.117 1.117 0 0 0 -.06-1.552l-2.2-2.147a1.136 1.136 0 0 0 -1.606.022l-4.341 4.466a1.143 1.143 0 0 0 .022 1.61l2.2 2.146a1.129 1.129 0 0 0 .793.323h.016a1.112 1.112 0 0 0 .344-.072l1.679 1.637a4.357 4.357 0 0 0 2.833 1.275 2.272 2.272 0 0 1 1.505.575zm10.131-2.877a4.121 4.121 0 0 1 -7.129 2.829 2.125 2.125 0 0 0 -.04-2.99l-.928-.928a4.12 4.12 0 0 1 8.1 1.088zm-17.265-2.732-1.928-1.88 4.076-4.195 1.928 1.881zm2.967 2.02-1.581-1.541 2.8-2.881a3.025 3.025 0 0 0 1.671.278 2.328 2.328 0 0 1 2.006.614l.956.926a5.422 5.422 0 0 0 -.7 1.177l-.09-.09a.663.663 0 0 0 -.936.94l2.073 2.074a.795.795 0 0 1 -.543 1.364.681.681 0 0 1 -.548-.209l-.753-.786a3.524 3.524 0 0 0 -2.276-.958 3.067 3.067 0 0 1 -2.079-.907z" transform="translate(-346.888 -332.311)"/><path d="m363.877 354.653a.5.5 0 0 0 0 1h1.139a.5.5 0 0 0 0-1z" transform="translate(-347.76 -333.507)"/><path d="m369.347 332.26h-10.476a2.085 2.085 0 0 0 -2.086 2.078v1.707a.665.665 0 0 0 1.329 0v-1.707a.756.756 0 0 1 .757-.754h3.129v.185a.284.284 0 0 0 .285.283h3.649a.284.284 0 0 0 .285-.283v-.185h3.129a.756.756 0 0 1 .757.754v19.845a.756.756 0 0 1 -.757.754h-10.477a.756.756 0 0 1 -.757-.754v-6.83a.665.665 0 0 0 -1.329 0v6.83a2.085 2.085 0 0 0 2.086 2.078h10.475a2.085 2.085 0 0 0 2.086-2.078v-19.845a2.085 2.085 0 0 0 -2.085-2.078z" transform="translate(-347.433 -332.26)"/><path d="m363.726 344.452h.978a.376.376 0 1 1 0 .751h-1.746a.474.474 0 1 0 0 .949h.8v.3a.474.474 0 0 0 .949 0v-.3a1.324 1.324 0 0 0 -.007-2.648h-.978a.375.375 0 0 1 0-.75h1.449a.474.474 0 1 0 0-.949h-.464v-.469a.474.474 0 0 0 -.949 0v.469h-.036a1.324 1.324 0 0 0 0 2.648z" transform="translate(-347.71 -332.746)"/></g></svg>