<svg height="23.997" viewBox="0 0 25.54 23.997" width="25.54" xmlns="http://www.w3.org/2000/svg"><g fill="#fff"><path d="m2.49 7.034h2a1.075 1.075 0 1 1 0 2.15h-3.6a.71.71 0 0 0 0 1.41h2v.91a.71.71 0 1 0 1.41 0v-.91h.27a2.5 2.5 0 0 0 0-5h-2a1.075 1.075 0 1 1 0-2.15h3a.71.71 0 0 0 0-1.41h-1.3v-1.24a.71.71 0 1 0 -1.41 0v1.27h-.36a2.5 2.5 0 0 0 0 5z" transform="translate(9.38 5.553)"/><path d="m23.56 9.117-1.19-.67.31-1.55a2.91 2.91 0 0 0 -.21-2.55c-.57-.71-1.57-.81-2.92-.76l-1.45.113-.4-1.4a2.91 2.91 0 0 0 -1.35-2.153c-.83-.37-1.77 0-2.94.67l-1.24.77-1.51-.787c-1.2-.583-2.16-.883-2.96-.453a2.86 2.86 0 0 0 -1.19 2.21l-.39 1.75-1.4.16-1.34.233a.71.71 0 0 0 .12 1.4h.12l3.17-.44h.06l.15-.073h.09l.12-.1.07-.07a.7.7 0 0 0 .07-.14.68.68 0 0 0 0-.09l.5-2.29c.14-1 .37-1.17.46-1.22a3.084 3.084 0 0 1 1.67.46l1.66.87h.06a.7.7 0 0 0 .81.05l1.57-1c.86-.49 1.42-.7 1.65-.59s.34.24.56 1.22l.56 2a.71.71 0 0 0 .68.51h.22l1.89-.197c1 0 1.58 0 1.74.23s.19.37-.07 1.34l-.41 2a.67.67 0 0 0 0 .08.7.7 0 0 0 .34.75l1.61.91c.85.52 1.29.91 1.31 1.16s0 .41-.8 1.07l-1.55 1.52a.68.68 0 0 0 -.1.14.69.69 0 0 0 -.16.65l.58 2c.32.91.22 1.21.16 1.29a3.706 3.706 0 0 1 -1.69.37h-1.94a.7.7 0 0 0 -.68.5l-.57 2c-.21.94-.45 1.14-.55 1.18a3.6 3.6 0 0 1 -1.63-.58l-1.59-1a.7.7 0 0 0 -.19-.07h-.43a.7.7 0 0 0 -.17.08l-1.55 1.27c-.84.54-1.39.76-1.62.68s-.35-.22-.62-1.19l-.67-2a.68.68 0 0 0 -.07-.11v-.07l-.11-.11-.13-.09h-.48l-1.83.3c-1 .13-1.58.1-1.75-.08s-.22-.35 0-1.34l.24-2.05a.69.69 0 0 0 -.26-.67l-1.71-1.34c-.79-.56-.87-.86-.88-1 0-.25.39-.69 1.16-1.28l1.53-1.09a.7.7 0 0 0 .29-.86l-.8-1.9s-.15-.32-.39-.91a.7.7 0 0 0 -.74-.43.68.68 0 0 0 -.17 0 .71.71 0 0 0 -.4.92c.25.63.41 1 .42 1l.57 1.37-1.13.8c-1.07.807-1.75 1.56-1.75 2.437a2.87 2.87 0 0 0 1.44 2.06l1.33 1.063-.19 1.62a2.91 2.91 0 0 0 .42 2.517 2.31 2.31 0 0 0 1.78.6 9.4 9.4 0 0 0 1.22-.09l1.27-.21.47 1.36a2.91 2.91 0 0 0 1.47 2.09 1.71 1.71 0 0 0 .61.11 4.61 4.61 0 0 0 2.31-.95l1.19-.88 1.21.75a4.79 4.79 0 0 0 2.21.8 1.72 1.72 0 0 0 .71-.15 2.87 2.87 0 0 0 1.34-2.13l.4-1.44h1.44c1.33 0 2.32-.23 2.83-1a2.87 2.87 0 0 0 0-2.52l-.46-1.6 1.3-1.27a2.91 2.91 0 0 0 1.24-2.23c-.05-.91-.82-1.56-1.98-2.26z"/></g></svg>