<svg height="24" viewBox="0 0 23.976 24" width="23.976" xmlns="http://www.w3.org/2000/svg"><g fill="#fff"><path d="m.66 4.155a.66.66 0 0 0 .66-.66 2.17 2.17 0 0 1 2.17-2.17 2 2 0 0 1 2.17 2.175c0 1.25-.65 1.6-1.41 2s-1.42.76-1.42 1.77v1.18a.665.665 0 0 0 1.33 0v-1.185c0-.18.13-.28.72-.6a3.28 3.28 0 0 0 2.11-3.165 3.31 3.31 0 0 0 -3.49-3.495 3.5 3.5 0 0 0 -3.5 3.495.66.66 0 0 0 .66.655z" transform="translate(8.318 6.055)"/><circle cx="11.808" cy="17.47" r=".75"/><path d="m11.978 0a12 12 0 0 0 -8.178 3.22.66.66 0 0 0 0 .94.66.66 0 0 0 .9 0 10.67 10.67 0 1 1 1.14 16.57.66.66 0 0 0 -.24-.1h-.25a.66.66 0 0 0 -.24.09l-.4.26a3.43 3.43 0 0 0 -.38.18l-1.92.7a.482.482 0 0 1 -.33 0c-.04 0-.05-.19 0-.33l.76-1.9.14-.43c.06-.17.12-.33.22-.56a.62.62 0 0 0 0-.07.65.65 0 0 0 0-.12.67.67 0 0 0 0-.25.65.65 0 0 0 -.06-.13q0-.03 0-.06a10.68 10.68 0 0 1 .29-12.4.66.66 0 0 0 -.11-.9.66.66 0 0 0 -.93.13 12 12 0 0 0 -.51 13.63l-.11.3-.15.4-.782 1.83a1.61 1.61 0 0 0 .28 1.75 1.5 1.5 0 0 0 1.09.44 1.88 1.88 0 0 0 .65-.12l2-.74.33-.16a.86.86 0 0 0 .23-.12 12 12 0 1 0 6.56-22.05z"/></g></svg>