<svg height="48" viewBox="0 0 48 48" width="48" xmlns="http://www.w3.org/2000/svg"><g transform="translate(-233.933 -601.375)"><circle cx="257.932" cy="625.139" fill="#fff" opacity=".3" r="22.572"/><path d="m257.933 601.375a23.842 23.842 0 0 0 -9.585 1.99 1.143 1.143 0 0 0 .913 2.1 21.745 21.745 0 1 1 -4.394 2.569 1.143 1.143 0 0 0 -1.377-1.825 24 24 0 1 0 14.443-4.83z" fill="#fff"/><path d="m1256.742 7230.1a10.807 10.807 0 0 1 14.536 7.422 15.592 15.592 0 0 1 .411 6.946 18.583 18.583 0 0 1 -2.469 5.631 14.176 14.176 0 0 0 -1.938 7.7c.066 1.635 1.019 5.214 1.213 6.839a9.327 9.327 0 0 1 -2.137.916 19.16 19.16 0 0 1 -6.628.916 8 8 0 0 1 -.687-3.7c.146-2.261.719-5.871-1.252-5.755-1.1.042-2.376.335-3.418-.153-2.478-1.128-3.576-3.677-4.017-6.268a33.995 33.995 0 0 1 -.333-10.6c.405-3.253 1.013-6.614 3.93-8.522a14.076 14.076 0 0 1 2.79-1.367" fill="#f8d2b3" transform="translate(-1001.949 -6619.403)"/><path d="m1320.515 7294.842 11.365-2.307 3.674 2.551.906 5.22c-3.131-3.912-5.059-3.151-5.059-3.151-5.855 3.151-6.371.348-6.371.348a14.2 14.2 0 0 1 -4.822-.96c.086-.571.185-1.143.307-1.701z" opacity=".07" transform="translate(-1071.956 -6677.035)"/><path d="m1264.724 7241.878a20.55 20.55 0 0 0 -.286-10.8 12.265 12.265 0 0 0 -5.528-6.993c-2.859-1.582-6.141-.763-9.171-.223a16.167 16.167 0 0 1 -2.707.252c-1.866-.055-2.874-.742-4.713-.182a3.93 3.93 0 0 0 -2.7 5.224c1.663 3.345 5.28 4.387 8.7 4.4a25.043 25.043 0 0 0 4.107-.353c1.081-.194 1.9-.649 2.648.3a33.25 33.25 0 0 0 3.025 3.812c.656.449.03-.576 1.677-.363a1.648 1.648 0 0 1 1.17.885c.248.454.061.306.085.825.044.941-1.089 1.055-1.163 1.981-.213 2.684.258 7.226.642 7.458.683.413 2.027-1.19 2.457-1.73a12.7 12.7 0 0 0 1.759-4.495" fill="#ec624b" transform="translate(-994.38 -6613.792)"/><path d="m1278.97 7354.887.01-.042a2.323 2.323 0 0 1 2.978.555 2.83 2.83 0 0 1 -.657 3.574 11.764 11.764 0 0 1 -1.382 1.129z" fill="#f8d2b3" transform="translate(-1015.125 -6733.539)"/><path d="m1308.736 7357.639-.475 1.691s.956.645.956.554.16-1.947.16-1.947z" fill="#f8d2b3" transform="translate(-1044.604 -6736.291)"/><path d="m1332.546 7499.838-1.32.162c-.01-.26-.012-.53 0-.807.153-2.367.755-6.145-1.316-6.023 0 0 2.359-.085 7.191-4.725a.092.092 0 0 1 .149.1z" opacity=".1" transform="translate(-1074.302 -6856.018)"/><path d="m1379.6 7289.422.161-.551 6.391 2.287s-5.882 2.55-7.2.478c0 0-7.421.217-7.246-4.294.001 0 6.63 1.716 7.894 2.08z" fill="#ec624b" transform="translate(-1126.456 -6672.272)"/></g></svg>