<svg height="16.145" viewBox="0 0 21.576 16.145" width="21.576" xmlns="http://www.w3.org/2000/svg"><path d="m16.19.061a2.773 2.773 0 0 1 1.927.249 4.2 4.2 0 0 1 1.621 2.251 16.263 16.263 0 0 1 .618 7.89 2.1 2.1 0 0 1 -1 1.738 1.047 1.047 0 0 1 -1.161-.25 2.591 2.591 0 0 1 -.263-1.885 16.079 16.079 0 0 0 .151-3 1.468 1.468 0 0 0 -.549-1.22.989.989 0 0 0 -1.134.026 3.812 3.812 0 0 0 -1.218 1.518 42.026 42.026 0 0 0 -1.682 4.715 3.861 3.861 0 0 1 -1.369 1.876 4.423 4.423 0 0 1 -2.721.665 3.765 3.765 0 0 1 -2.91-1.807c-.785-1.269-1.483-2.589-2.25-3.868-.25-.373-.573-.849-1.08-.794-.533.049-.735.647-.718 1.107.038 1.578.8 3.016 1.073 4.553a1.134 1.134 0 0 1 -.518 1.283 2.282 2.282 0 0 1 -.886 0 1.783 1.783 0 0 1 -.834-.981 19.027 19.027 0 0 1 -1.287-4.975 14.8 14.8 0 0 1 .133-2.619 7.162 7.162 0 0 1 1.681-3.933 2.891 2.891 0 0 1 3.533-.463 9.968 9.968 0 0 1 2.403 2.923 4.746 4.746 0 0 0 1.918 2.151 1.694 1.694 0 0 0 1.944-.406 3.742 3.742 0 0 0 .688-1.261c.381-.955.761-1.909 1.179-2.848a4.149 4.149 0 0 1 2.711-2.635z" fill="none" stroke="#fff" stroke-miterlimit="10" transform="translate(.501 .497)"/></svg>