<svg height="180.903" viewBox="0 0 219.773 180.903" width="219.773" xmlns="http://www.w3.org/2000/svg" xmlns:xlink="http://www.w3.org/1999/xlink"><clipPath id="a"><path d="m0 0h.007v.006h-.007z"/></clipPath><clipPath id="b"><path d="m0 0h48.825v47.75h-48.825z"/></clipPath><clipPath id="c"><path d="m0 0h34.989v35.617h-34.989z"/></clipPath><clipPath id="d"><path d="m0 0h44.992v27.042h-44.992z"/></clipPath><clipPath id="e"><path d="m0 0h21.347v23.756h-21.347z"/></clipPath><clipPath id="f"><path d="m0 0h22.044v11.075h-22.044z"/></clipPath><clipPath id="g"><path d="m0 0h25.704v16.442h-25.704z"/></clipPath><clipPath id="h"><path d="m0 0h28.222v37.479h-28.222z"/></clipPath><clipPath id="i"><path d="m0 0h15.845v26.236h-15.845z"/></clipPath><clipPath id="j"><path d="m0 0h27.419v34.146h-27.419z"/></clipPath><clipPath id="k"><path d="m0 0h26.521v80.088h-26.521z"/></clipPath><path d="m664.3 784.291c2.2-.111 4.447.024 6.523-.8a7.01 7.01 0 0 0 2.342-1.526 3.741 3.741 0 0 0 .927-1.884c.078-.841-.606-1.2-1.307-.72-.726.5-1.382 1.1-2.06 1.672a13.535 13.535 0 0 1 -6.426 3.258" fill="#f28d15" transform="translate(-619.472 -688.618)"/><path d="m645.737 741.145c1.991-1.82 4.213-3.441 5.527-5.836a8.575 8.575 0 0 0 1.021-3.264 4.574 4.574 0 0 0 -.593-2.5c-.581-.854-1.509-.663-1.793.339-.294 1.038-.443 2.117-.64 3.182a16.554 16.554 0 0 1 -3.522 8.077" fill="#943230" transform="translate(-604.155 -647.242)"/><path d="m1504.655 533.944-1.112.918s.343.882.385.821 1.02-1.238 1.02-1.238z" fill="#e95d4e" transform="translate(-1312.056 -486.268)"/><g clip-path="url(#a)" opacity=".1" transform="translate(177.045 86.681)"><path d="m1420.9 757.149.007-.006z" transform="translate(-1420.902 -757.143)"/></g><path d="m564.59 846.486-24.413-.239s1 84.587 5.443 115.688h14.137s1.286-41.118 4.833-75.283c3.547 34.164 4.833 75.283 4.833 75.283h14.137c4.44-31.101 5.44-115.688 5.44-115.688z" fill="#bde4a4" transform="translate(-519.128 -781.032)"/><g clip-path="url(#b)" opacity=".1" transform="translate(21.049 65.214)"><path d="m564.59 846.486-24.413-.239s.1 8.773.393 21.706c7.39 1.063 16.783-2.5 26.007-8.391 0 0 20.6 2.074 21.319 34.435.846-25.714 1.106-47.75 1.106-47.75z" transform="translate(-540.177 -846.247)"/></g><path d="m435.9 586.074s-19.472-22.381-22.381-35.139c0 0 21.662-29.854 64.33-14.044a30.318 30.318 0 0 1 19.319 23.391 156.083 156.083 0 0 1 1.848 29.148 8.209 8.209 0 0 1 -7.157 8.222c-5.082.638-11.246-1.106-12.762-12.474l-34.691-7.833z" fill="#0b2739" transform="translate(-413.52 -519.239)"/><g clip-path="url(#c)" opacity=".2" transform="translate(50.551 42.912)"><path d="m752.642 739.331c.09-4.34.038-8.338-.119-12.01l-10.175-1.163c-6.589-20.121-24.652-12.815-24.652-12.815l.9 18.545 14.129 3.19c1.516 11.368 7.68 13.113 12.762 12.475a8.209 8.209 0 0 0 7.157-8.222" transform="translate(-717.697 -712.051)"/></g><g clip-path="url(#d)" opacity=".2" transform="translate(30.212 13.036)"><path d="m629.429 536.9c-13.475-4.993-24.853-5.43-34.118-3.694l.167.286c2.275 3.932 6.175 10.9 9.356 16.22 2.872 4.8 8.172 9.947 16.682 9.594 8.677-.359 15.073-3.67 18.368-14.092q.213-.673.418-1.327a30.127 30.127 0 0 0 -10.874-6.988" transform="translate(-595.311 -532.278)"/></g><path d="m691.254 504.664c0 6.859-4.562 12.42-10.189 12.42s-10.189-5.561-10.189-12.42 4.562-12.42 10.189-12.42 10.189 5.561 10.189 12.42" fill="#f8d2b3" transform="translate(-628.106 -485.862)"/><path d="m659.993 454.228a2.2 2.2 0 0 0 -3.244.887 7.425 7.425 0 0 0 -.7 3.29 39.08 39.08 0 0 0 -5.57-1.949 4.544 4.544 0 0 0 -5.622 3.644c-.413 2.5-.6 5.547.405 7.453a3.429 3.429 0 0 0 -3.916 4.9 11.739 11.739 0 0 0 5.272 4.675c1.359-1.229 3.781-2.529 7.751-2.04 7.05.868 4.974 8.365 10.675 3.534a14.37 14.37 0 0 0 1.21-4.779l.022.009s1.862-14.021-6.284-19.62" fill="#e95d4e" transform="translate(-603.153 -453.841)"/><g clip-path="url(#e)" opacity=".05" transform="translate(41.959 0)"><path d="m686.338 477.6a14.551 14.551 0 0 0 .8-3.758l.022.009s1.862-14.02-6.284-19.62a2.2 2.2 0 0 0 -3.244.887 7.426 7.426 0 0 0 -.7 3.29 39.057 39.057 0 0 0 -5.57-1.949 4.553 4.553 0 0 0 -5.368 2.724 25.313 25.313 0 0 0 7.891 1.5c13.345.792 12.464 16.712 12.452 16.917" transform="translate(-665.995 -453.841)"/></g><path d="m425.216 712.86c4.293 4.906 11.993 8.408 18.74 6.863 7.613-1.743 10.071-9.025 16.941-8.411 4.008.358 4.4 2.359 8.278 3.479 6.118 1.766 17.467-5.109 18.391-14.838.764-8.051-5.87-15.325-12.336-17.585-9.385-3.281-16.065 4.821-25.107.133-4.091-2.121-4.635-4.77-9.111-5.725-6.477-1.382-12.219 2.7-12.711 3.054-5.479 3.932-12.775 21.957-3.085 33.031" fill="#019df4" transform="translate(-419.321 -639.488)"/><g clip-path="url(#f)" opacity=".1" transform="translate(44.528 42.073)"><path d="m692.835 707.8c-4.1-1.434-7.686-.694-11.176.2-.143.133-.214.249-.2.336.084.7 5.308-.807 11.506 1.6 7.054 2.741 10.023 8.474 10.481 8.111.115-.091.056-.557-.178-1.256a20 20 0 0 0 -10.428-9" fill="#fff" transform="translate(-681.454 -706.999)"/></g><path d="m756.692 773.761 45.33.976 1.613-3.362 12.956 2.239.22 6.927-13.642 2.459-.917-3.471-50.292 3.449z" fill="#019df4" transform="translate(-695.715 -718.603)"/><g clip-path="url(#g)" opacity=".1" transform="translate(43.822 59.137)"><path d="m702.908 814a5.756 5.756 0 0 0 -2.3-3.2c-2.369-1.594-6.146-1.61-9.477.692-3.07 2.122-5.913 4.481-7.469 5.623-.811.6-3.659 3.311-6.454 5.712 2.117.752 3.031 2.146 6.033 3.012 5.437 1.569 15.006-3.686 17.716-11.7z" transform="translate(-677.204 -809.677)"/></g><path d="m608.2 772.734a6.582 6.582 0 1 1 -8.2-4.4 6.582 6.582 0 0 1 8.2 4.4z" fill="none" stroke="#0b2739" stroke-miterlimit="10" stroke-width="3.027" transform="translate(-565.099 -715.834)"/><path d="m456.534 668.593-12.534-26.885-15.93 6.991a150.1 150.1 0 0 0 19.964 28.622z" fill="#0b2739" transform="translate(-425.648 -610.486)"/><path d="m874 792.23s-4.415-4.763-4.415-6.748 4.78 2.9 4.78 2.9-1.75-6.682-.436-7.927 3.825 7.868 3.825 7.868-1.442-8.42.563-9.141 2.713 9.777 2.713 9.777l2.42-5.332a1.387 1.387 0 0 1 .813-.753c.573-.19 1.264.041.879 2.628-.615 4.14-2.057 8.2-5.743 8.65a5.688 5.688 0 0 1 -5.4-1.919" fill="#f8d2b3" transform="translate(-793.795 -725.081)"/><g clip-path="url(#h)" opacity=".15" transform="translate(0 28.725)"><path d="m432.81 644.668a32.089 32.089 0 0 1 -16.7-17.982 30.967 30.967 0 0 0 -2.588 2.972c2.621 11.491 18.677 30.789 21.84 34.507a14.661 14.661 0 0 1 2.584-3.462l1.711.241 1.947-2c.653-4.8-.766-10.469-8.792-14.278" fill="#fff" transform="translate(-413.52 -626.686)"/></g><path d="m578.664 812.159c-1.82-.635-4.531-1.533-7.215-2.5 1.324-.965 2.926-2.254 2.828-2.775-.14-.745-4.979.88-6.467 1.4a34.685 34.685 0 0 1 -3.606-1.645l-3.723 4.111 7.509 6.135a5.694 5.694 0 0 0 6.184.617l4.69-2.43a1.588 1.588 0 0 0 -.2-2.91" fill="#f8d2b3" transform="translate(-536.056 -748.005)"/><path d="m1146.171 485.743q-4.888.052-9.776.076a6.512 6.512 0 0 0 -3.6-2.9c-.2-.063-.4-.11-.607-.165s-.414-.07-.621-.1-.418-.029-.627-.044c-.107-.008-.206-.008-.3-.008h-.294l-4.7-.009c-3.133.009-6.267.035-9.4.018q-.855-.007-1.71-.022v-1.192h-1.964l.049 1.148c-1.925-.056-3.85-.149-5.775-.292-6.267-.95-12.534.569-18.8-7.374v16.33c6.267-7.942 12.534-6.424 18.8-7.374 1.939-.144 3.879-.237 5.818-.293l.1 2.381-4.191.008-4.7.009h-3.528a3.089 3.089 0 0 0 -1.239.275 3.127 3.127 0 0 0 -1.668 1.842 3.2 3.2 0 0 0 -.141.623c-.015.105-.014.212-.021.319s0 .2 0 .3v2.938c0 .095 0 .2.008.308a2.139 2.139 0 0 0 .034.318 3.1 3.1 0 0 0 2.52 2.569 3.678 3.678 0 0 0 .63.051h2.938l4.7.011 5.071.014.1 2.4h1.261v-2.4l2.966.008 9.4.028 2.35.012 1.175.006c.2 0 .387.006.6-.008a4.966 4.966 0 0 0 .618-.046 6.457 6.457 0 0 0 5.379-4.572 6.565 6.565 0 0 0 .238-2.473 6.366 6.366 0 0 0 -.49-1.9q4.7.027 9.4.074zm-31.64-2.245q.855-.015 1.71-.022c3.134-.017 6.267.009 9.4.018l4.7-.009h.294.285c.181.013.364.008.545.033s.361.047.538.085.354.084.528.137a5.662 5.662 0 0 1 2.888 2.081q-4.024.022-8.05.041l-9.4.046-3.438.006zm-6.434 11.457-4.7.011h-2.937a3.113 3.113 0 0 1 -.54-.043 2.589 2.589 0 0 1 -2.108-2.146 1.676 1.676 0 0 1 -.028-.266c-.005-.087-.01-.178-.008-.279v-2.938c0-.1 0-.2 0-.29s0-.179.018-.267a2.707 2.707 0 0 1 .117-.521 2.625 2.625 0 0 1 1.4-1.544 2.587 2.587 0 0 1 1.038-.231h1.172 2.35l4.7.009 4.214.008.361 8.484zm28.375-6.41a5.793 5.793 0 0 1 -.188 2.179 5.724 5.724 0 0 1 -4.733 4.1 4.352 4.352 0 0 1 -.552.047c-.18.015-.381.012-.576.013l-1.175.006-2.35.012-9.4.028-2.966.008v-8.478l3.438.006 9.4.046q4.25.021 8.5.043a5.62 5.62 0 0 1 .6 1.99" fill="#019df4" transform="translate(-952.163 -455.522)"/><path d="m1419.218 578.5c-.122-.065-5.738 8.823-5.616 8.889l11.5 1.2a13.5 13.5 0 0 1 4-8.608z" fill="#e95d4e" transform="translate(-1220.831 -541.035)"/><path d="m1423.541 487.461a6.459 6.459 0 0 1 -2.469-1.619c-1.343-1.926-1.039-4.294-.229-6.4a29.106 29.106 0 0 1 4.406-7.981c1.728-2.225 3.654-4.442 6.656-4.566a12.134 12.134 0 0 1 2.67.219 9.334 9.334 0 0 1 7.525 11.886 13.351 13.351 0 0 1 -2.744 5.314 15.956 15.956 0 0 1 -4.3 3.073c-4.815 3.124-11.514.073-11.514.073" fill="#e95d4e" transform="translate(-1226.236 -448.923)"/><path d="m1429.07 464.891s-3.994-1.022-9.388 8.084a12.951 12.951 0 0 0 -1.655-3.065 13.107 13.107 0 0 0 -4.133-3.667c-3.229 3.805-4.05 8.157-2.313 10.551a5.154 5.154 0 0 0 2.668 1.8c3.365.908 6.763-2.154 7.5-2.937 2.989-3.163 3.046-8.2 6.251-7.795.662.083.29.94 1.025 1.506a12.309 12.309 0 0 0 -3.4 3.185 12.789 12.789 0 0 0 -2.345 7.559c.562.013 9.188.066 13.134-6.443a12.725 12.725 0 0 0 1.777-6.385s.522-10.081-6.125-11.256c-.579-.1-5.269-3.533-9.312-1.6a4.1 4.1 0 0 0 -1.8 2.157c-.989 3.048 7.571 8 8.112 8.3" fill="#0b2739" transform="translate(-1218.43 -438.163)"/><g clip-path="url(#i)" opacity=".2" transform="translate(203.927 15.678)"><path d="m1486.248 459.132c3.68 7.288.649 11.579 5.412 9.578 1.064-.447 1.5-.181 1.466.482a13.971 13.971 0 0 0 .164-1.906s.522-10.081-6.125-11.256c-.579-.1-5.269-3.533-9.312-1.6a2.4 2.4 0 0 0 -.4.246c3.152-.114 6.884.676 8.793 4.456" transform="translate(-1477.454 -453.841)"/><path d="m1498.279 548.472a12.15 12.15 0 0 0 1.527-3.992c-.741 2.677-6.053 8.842-10.323 7.636-3.614-1.021-4.666 1.323-3.171 2.76 2.6-.181 8.8-1.173 11.967-6.4" transform="translate(-1484.22 -528.64)"/></g><path d="m1501.246 533.97.027-.024c.9.2 1.743.724 1.749 1.769a2.324 2.324 0 0 1 -2.116 2.1 9.7 9.7 0 0 1 -1.461.114z" fill="#e95d4e" transform="translate(-1291.673 -504.269)"/><path d="m1217.649 535.479s6.1-2.772 4.766-13.312l-3.225-3.4s-1.373.866.236 2.864l1.105 1.474-.354 1.987-3.84-7.267s-1.208.157-.571 2.054 2.6 6.107 2.6 6.107l-3.327-4.356-3.236-1.352s-.911 1.144 1.119 2.2l1.146.531 1.93 3.458-2.591-1.651-2.554-.75s-.667.794.921 1.456a8.7 8.7 0 0 1 3.013 2.9 16.76 16.76 0 0 0 -.982 7.884z" fill="#e95d4e" transform="translate(-1053.396 -490.969)"/><path d="m1261.441 617.693a12.7 12.7 0 0 0 -8.727-.333 11.043 11.043 0 0 0 -2.346 1.11c-7.576 4.229-17.174 15.039-17.174 15.039l-6.133-16.765-5.943 1.356c-3.152 16.327 5.117 30.883 5.117 30.883a33.636 33.636 0 0 0 5.18 1.068c-6.889 22.8-6.452 47.131-6.452 47.131 25.468 14.846 38.632 5.37 38.632 5.37-1.918-13.583 2.542-48.527 5.473-58.756 4.027-14.054 1.079-22.819-7.628-26.1" fill="#debce4" transform="translate(-1061.395 -572.598)"/><g clip-path="url(#j)" opacity=".1" transform="translate(164.71 70.464)"><path d="m1258.354 774.333a153.58 153.58 0 0 0 -5.311 27c5.328.62 8.486-.657 10.414-2.017 5.9-4.16 4.315-11.936 9.525-21.937a39.913 39.913 0 0 1 7.479-10.03 27.746 27.746 0 0 1 -22.107 6.988" transform="translate(-1253.042 -767.345)"/></g><g clip-path="url(#k)" opacity=".2" transform="translate(182.927 47.537)"><path d="m1382.026 659.808c3.267-11.4 1.941-19.324-3.326-23.661-.024.009-.049.01-.072.019-4.577 1.939 8.012 26.125-2.236 37.544-4.774 5.32-15.126 8.559-17.734 14.931a20.4 20.4 0 0 0 -1.365 6.116c-.206 5.467 1.858 15.482 19.013 21.478-1.2-14.878 2.944-46.737 5.72-56.428" fill="#fff" transform="translate(-1357.28 -636.147)"/></g><path d="m1032.545 432.377c-1.789-1.663-3.789-3.146-4.962-5.325a7.766 7.766 0 0 1 -.9-2.962 4.145 4.145 0 0 1 .555-2.258c.532-.769 1.371-.589 1.621.32.259.942.386 1.92.556 2.885a14.992 14.992 0 0 0 3.13 7.339" fill="#922859" transform="translate(-901.517 -411.35)"/><path d="m1006.7 557.109c-1.981.479-4.042.74-5.785 1.846a6.476 6.476 0 0 0 -1.865 1.787 3.456 3.456 0 0 0 -.518 1.869c.073.777.757.989 1.31.429.573-.579 1.065-1.239 1.583-1.871a12.507 12.507 0 0 1 5.275-4.059" fill="#f28d15" transform="translate(-878.296 -523.384)"/><path d="m797.183 368.076a2.75 2.75 0 0 0 -.836-1.164l.015.011a3.083 3.083 0 0 0 -.161-.572 2.741 2.741 0 0 0 -.848-1.173 3.323 3.323 0 0 0 -.491-.31 7.981 7.981 0 0 0 -1.707-.517 2.877 2.877 0 0 1 -1.424-.812l-.229.13 3.981 6.986a1.677 1.677 0 0 0 -1.584.873c-.506.763-.5 1.66.022 2s1.348 0 1.854-.76a1.734 1.734 0 0 0 .231-1.732l-2.412-4.233c.4.02.8.027 1.2.045a2.266 2.266 0 0 1 1.764.616 3.059 3.059 0 0 1 .705 1.891c0 .074-.014.136.034.132.148-.01.111-.228.107-.313a3.325 3.325 0 0 0 -.217-1.1m-1.339-1.483a7.992 7.992 0 0 0 -1.708-.517 2.88 2.88 0 0 1 -1.424-.812l-.1-.181c.4.02.8.026 1.2.045a2.266 2.266 0 0 1 1.764.616 2.891 2.891 0 0 1 .557 1.013 3 3 0 0 0 -.285-.165" fill="#922859" transform="translate(-691.135 -352.768)"/><path d="m946.976 480.767-1.081-5.355-.214-1.058-.007.006-4.546 3.228.214 1.058 1.285 6.292a1.717 1.717 0 0 0 -1.82.342c-.737.58-1.015 1.455-.621 1.956s1.31.435 2.047-.145a1.776 1.776 0 0 0 .78-1.61l-1.425-7.008 4.065-2.887.937 4.642a1.717 1.717 0 0 0 -1.82.342c-.737.58-1.015 1.456-.621 1.956s1.31.435 2.047-.145a1.776 1.776 0 0 0 .779-1.61" fill="#943230" transform="translate(-830.002 -455.09)"/></svg>